<svg width="158" height="158" viewBox="0 0 158 158" fill="none" xmlns="http://www.w3.org/2000/svg">
<path d="M30.3857 99.5202C46.008 95.0666 60.4189 94.7572 71.9628 104.264M30.3857 89.7177C46.008 85.264 60.4189 84.9513 71.9628 94.4577M30.3857 80.1751C46.008 75.7215 60.4189 75.4088 71.9628 84.9151M30.3857 69.9249C46.008 65.4712 60.4189 65.1585 71.9628 74.6649M30.3857 59.9281C46.008 55.4777 60.4189 55.165 71.9628 64.6714" stroke="white" stroke-linecap="round" stroke-linejoin="round"/>
<path d="M18.1045 31.7547L18.4896 125.979C41.1659 116.4 61.5018 117.611 79.0629 131.621C97.6838 120.867 117.164 115.129 139.511 126.107L139.896 32.7784C121.045 25.3919 100.518 21.6954 79.0662 37.0082C62.0614 24.3419 39.6155 23.9238 18.1045 31.7547Z" stroke="white" stroke-linecap="round" stroke-linejoin="round"/>
<path d="M30.3857 50.5995C46.008 46.1459 60.4189 45.8332 71.9628 55.3395M87.1867 79.0329C86.9333 88.0192 92.5423 94.2931 101.134 99.1845L119.172 97.0219C130.498 88.8915 130.396 81.0869 130.044 73.289L87.1867 79.0329ZM91.9202 53.8056L87.0584 67.2027C92.7694 67.5384 98.7964 65.0269 103.882 70.9815L107.338 61.8175C99.333 62.489 95.9097 57.2223 91.9202 53.8056Z" stroke="white" stroke-linecap="round" stroke-linejoin="round"/>
</svg>
