<svg width="158" height="158" viewBox="0 0 158 158" fill="none" xmlns="http://www.w3.org/2000/svg">
<path d="M78.9997 26.3333C85.9837 26.3333 92.6817 29.1077 97.6202 34.0462C102.559 38.9847 105.333 45.6826 105.333 52.6667C105.333 59.6507 102.559 66.3487 97.6202 71.2872C92.6817 76.2256 85.9837 79 78.9997 79C72.0156 79 65.3177 76.2256 60.3792 71.2872C55.4407 66.3487 52.6663 59.6507 52.6663 52.6667C52.6663 45.6826 55.4407 38.9847 60.3792 34.0462C65.3177 29.1077 72.0156 26.3333 78.9997 26.3333ZM78.9997 92.1667C108.098 92.1667 131.666 103.951 131.666 118.5V131.667H26.333V118.5C26.333 103.951 49.9013 92.1667 78.9997 92.1667Z" fill="white"/>
</svg>
